<svg height="512pt" viewBox="0 0 512 512.00099" width="512pt" xmlns="http://www.w3.org/2000/svg"><path d="m502 0h-492c-5.523438 0-10 4.476562-10 10v32c0 5.523438 4.476562 10 10 10h89.839844v109.589844c-7.683594 8.554687-14.695313 17.761718-20.941406 27.558594-21.519532 33.777343-32.898438 72.800781-32.898438 112.851562 0 115.796875 94.207031 210 210 210s210-94.203125 210-210c0-49.597656-17.296875-95.230469-46.160156-131.199219v-118.800781h82.160156c5.523438 0 10-4.476562 10-10v-32c0-5.523438-4.476562-10-10-10zm-370.15625 132.625c-4.121094 3.015625-8.121094 6.179688-12 9.488281v-90.113281h12zm124.15625 359.375c-104.765625 0-190-85.234375-190-190 0-73.546875 43.078125-141.144531 109.742188-172.214844 5.003906-2.332031 7.171874-8.28125 4.839843-13.289062-2.335937-5.003906-8.285156-7.171875-13.289062-4.839844-5.277344 2.460938-10.425781 5.132812-15.449219 8v-67.65625h215.996094v72.339844c-32.402344-20.46875-70.757813-32.339844-111.839844-32.339844-5.550781 0-11.175781.226562-16.714844.667969-5.503906.441406-9.613281 5.257812-9.171875 10.765625.4375 5.503906 5.253907 9.605468 10.765625 9.171875 5.011719-.398438 10.097656-.605469 15.121094-.605469 104.769531 0 190 85.234375 190 190s-85.234375 190-190 190zm143.839844-342.984375c-3.867188-3.636719-7.871094-7.125-12-10.460937v-86.554688h12zm92.160156-117.015625h-472v-12h472zm0 0"/><path d="m323.972656 268.507812h-120c-5.523437 0-10 4.476563-10 10v51.996094c0 16.191406 6.242188 30.949219 16.445313 42h-6.445313c-5.523437 0-10 4.480469-10 10 0 5.523438 4.476563 10 10 10h104c5.523438 0 10-4.476562 10-10 0-5.519531-4.476562-10-10-10h-6.445312c8.054687-8.726562 13.632812-19.765625 15.625-32h6.820312c19.851563 0 36-16.148437 36-36 0-19.847656-16.152344-35.996094-36-35.996094zm-110 61.996094v-41.996094h84v41.996094c0 23.160156-18.84375 42-42 42-23.160156 0-42-18.839844-42-42zm110-10h-6v-31.996094h6c8.820313 0 16 7.175782 16 15.996094 0 8.824219-7.179687 16-16 16zm0 0"/><path d="m246.746094 214.941406c-2.09375 5.109375.351562 10.953125 5.460937 13.046875 1.242188.511719 2.523438.75 3.789063.75 3.9375 0 7.667968-2.339843 9.253906-6.207031 4.210938-10.269531 2.007812-18.648438.398438-24.769531-1.453126-5.53125-2.078126-8.375-.398438-12.476563 2.097656-5.109375-.347656-10.949218-5.457031-13.042968s-10.949219.347656-13.046875 5.457031c-4.292969 10.480469-2.066406 18.957031-.4375 25.148437 1.425781 5.417969 2.035156 8.199219.4375 12.09375zm0 0"/><path d="m206.304688 222.847656c1.425781 5.421875 2.039062 8.199219.441406 12.097656-2.09375 5.109376.347656 10.949219 5.457031 13.042969 1.242187.511719 2.527344.753907 3.792969.753907 3.933594 0 7.667968-2.34375 9.253906-6.210938 4.210938-10.265625 2.007812-18.648438.398438-24.769531-1.453126-5.53125-2.078126-8.371094-.398438-12.472657 2.09375-5.109374-.347656-10.949218-5.457031-13.046874-5.109375-2.09375-10.953125.351562-13.046875 5.460937-4.296875 10.476563-2.066406 18.953125-.441406 25.144531zm0 0"/><path d="m286.75 234.941406c-2.09375 5.113282.347656 10.953125 5.457031 13.046875 1.242188.511719 2.527344.75 3.792969.75 3.933594 0 7.667969-2.339843 9.253906-6.207031 4.210938-10.265625 2.007813-18.648438.398438-24.769531-1.453125-5.53125-2.078125-8.371094-.398438-12.472657 2.09375-5.113281-.347656-10.953124-5.457031-13.046874s-10.953125.351562-13.046875 5.460937c-4.296875 10.476563-2.066406 18.953125-.441406 25.144531 1.425781 5.421875 2.039062 8.199219.441406 12.09375zm0 0"/><path d="m238.207031 412.503906h-.238281c-5.519531 0-10 4.476563-10 10 0 5.523438 4.480469 10 10 10h.238281c5.523438 0 10-4.476562 10-10 0-5.523437-4.476562-10-10-10zm0 0"/><path d="m307.972656 412.507812h-41.035156c-5.523438 0-10 4.476563-10 10 0 5.523438 4.476562 10 10 10h41.035156c5.523438 0 10-4.476562 10-10 0-5.523437-4.476562-10-10-10zm0 0"/><path d="m200.546875 120.273438.230469-.070313c5.277344-1.625 8.242187-7.21875 6.617187-12.496094-1.625-5.28125-7.222656-8.246093-12.5-6.617187l-.230469.070312c-5.277343 1.621094-8.238281 7.21875-6.617187 12.496094 1.324219 4.300781 5.28125 7.0625 9.554687 7.0625.976563 0 1.96875-.144531 2.945313-.445312zm0 0"/></svg>